# xmcd
#
# Track frame offsets:
#	150
#	15942
#	32162
#	49825
#	67207
#	85420
#	101637
#	124365
#	148350
#	165655
#	195312
#	211500
#	232670
#	247290
#
# Disc length: 3549 seconds
#
# Revision: 1
# Processed by: cddbd v1.5PL3 Copyright (c) Steve Scherf et al.
# Submitted via: CDex 1.50Beta5
#
DISCID=c30ddb0e
DTITLE=南佳孝 - 大航海図鑑
DYEAR=1990
DGENRE=Pop
TTITLE0=Monroe Walk
TTITLE1=素敵なパメラ
TTITLE2=プールサイド
TTITLE3=日付変更線
TTITLE4=Midnight Love Call
TTITLE5=スタンダード・ナンバー
TTITLE6=雪のクリスマス・カード
TTITLE7=Prom Night
TTITLE8=Scotch And Rain
TTITLE9=真夜中の虹
TTITLE10=Paradiso
TTITLE11=Girl
TTITLE12=スローなブギにしてくれ
TTITLE13=ブルースでも歌って
EXTD=
EXTT0=
EXTT1=
EXTT2=
EXTT3=
EXTT4=
EXTT5=
EXTT6=
EXTT7=
EXTT8=
EXTT9=
EXTT10=
EXTT11=
EXTT12=
EXTT13=
PLAYORDER=
